<svg width="30" height="30" viewBox="0 0 30 30" fill="none" xmlns="http://www.w3.org/2000/svg">
<rect width="30" height="30" rx="3" fill="#808080"/>
<path d="M6.46767 14.7929H3.74805V11.5399H6.54555V10.7149C6.54555 6.71013 8.4193 5.31425 12.115 5.31425C13.1163 5.31425 13.8868 5.46975 14.4767 5.57175L14.193 8.77625C13.8092 8.64675 13.4243 8.56725 12.7293 8.56725C11.5494 8.56725 11.0895 9.39475 11.0895 10.7145V11.5399H14.374V14.7929H11.0895V25H6.46767V14.7929Z" fill="white"/>
<path d="M26.0237 15.2595C25.5108 15.103 24.9974 15.103 24.4584 15.103C22.3017 15.103 21.0939 16.6813 21.0939 19.3169V24.9996H16.4766V11.54H20.6859V14.0201H20.7349C21.5324 12.3134 22.6877 11.2285 24.6894 11.2285C25.2278 11.2285 25.7938 11.305 26.2537 11.385L26.0237 15.2595Z" fill="white"/>
</svg>
