<svg width="30" height="30" viewBox="0 0 30 30" fill="none" xmlns="http://www.w3.org/2000/svg">
<rect width="30" height="30" rx="3" fill="#808080"/>
<path d="M19.017 5H10.947C9.37015 5.00185 7.85844 5.62914 6.74353 6.74424C5.62862 7.85933 5.00159 9.37115 5 10.948L5 19.018C5.00185 20.5948 5.62914 22.1066 6.74424 23.2215C7.85933 24.3364 9.37115 24.9634 10.948 24.965H19.018C20.5948 24.9631 22.1066 24.3359 23.2215 23.2208C24.3364 22.1057 24.9634 20.5938 24.965 19.017V10.947C24.9631 9.37015 24.3359 7.85844 23.2208 6.74353C22.1057 5.62862 20.5938 5.00159 19.017 5ZM22.957 19.017C22.957 19.5344 22.8551 20.0468 22.6571 20.5248C22.4591 21.0028 22.1689 21.4371 21.803 21.803C21.4371 22.1689 21.0028 22.4591 20.5248 22.6571C20.0468 22.8551 19.5344 22.957 19.017 22.957H10.947C9.90222 22.9567 8.90032 22.5415 8.16165 21.8026C7.42297 21.0638 7.008 20.0618 7.008 19.017V10.947C7.00827 9.90222 7.42349 8.90032 8.16235 8.16165C8.90122 7.42297 9.90322 7.008 10.948 7.008H19.018C20.0628 7.00827 21.0647 7.42349 21.8034 8.16235C22.542 8.90122 22.957 9.90322 22.957 10.948V19.017Z" fill="white"/>
<path d="M14.9823 9.81836C13.6137 9.82048 12.3018 10.3651 11.3342 11.333C10.3666 12.3008 9.82216 13.6128 9.82031 14.9814C9.8219 16.3503 10.3663 17.6627 11.3342 18.6308C12.3021 19.5988 13.6144 20.1435 14.9833 20.1454C16.3524 20.1438 17.665 19.5992 18.6331 18.6311C19.6012 17.663 20.1457 16.3505 20.1473 14.9814C20.1452 13.6124 19.6003 12.3002 18.632 11.3326C17.6637 10.3649 16.3512 9.82068 14.9823 9.81936V9.81836ZM14.9823 18.1374C14.1456 18.1374 13.3431 17.805 12.7514 17.2133C12.1597 16.6216 11.8273 15.8191 11.8273 14.9824C11.8273 14.1456 12.1597 13.3431 12.7514 12.7514C13.3431 12.1598 14.1456 11.8274 14.9823 11.8274C15.8191 11.8274 16.6216 12.1598 17.2132 12.7514C17.8049 13.3431 18.1373 14.1456 18.1373 14.9824C18.1373 15.8191 17.8049 16.6216 17.2132 17.2133C16.6216 17.805 15.8191 18.1374 14.9823 18.1374Z" fill="white"/>
<path d="M20.1569 11.0951C20.8401 11.0951 21.3939 10.5413 21.3939 9.85809C21.3939 9.17492 20.8401 8.62109 20.1569 8.62109C19.4737 8.62109 18.9199 9.17492 18.9199 9.85809C18.9199 10.5413 19.4737 11.0951 20.1569 11.0951Z" fill="white"/>
</svg>
