<svg width="30" height="30" viewBox="0 0 30 30" fill="none" xmlns="http://www.w3.org/2000/svg">
<rect width="30" height="30" rx="3" fill="#808080"/>
<path d="M9.94141 8.001C9.94114 8.53143 9.73017 9.04004 9.35491 9.41492C8.97965 9.78981 8.47084 10.0003 7.94041 10C7.40997 9.99974 6.90137 9.78877 6.52649 9.41351C6.1516 9.03825 5.94114 8.52943 5.94141 7.999C5.94167 7.46857 6.15264 6.95996 6.5279 6.58508C6.90316 6.21019 7.41197 5.99974 7.94241 6C8.47284 6.00027 8.98144 6.21123 9.35633 6.58649C9.73121 6.96175 9.94167 7.47057 9.94141 8.001ZM10.0014 11.481H6.00141V24.001H10.0014V11.481ZM16.3214 11.481H12.3414V24.001H16.2814V17.431C16.2814 13.771 21.0514 13.431 21.0514 17.431V24.001H25.0014V16.071C25.0014 9.901 17.9414 10.131 16.2814 13.161L16.3214 11.481Z" fill="white"/>
</svg>
