<svg width="30" height="30" viewBox="0 0 30 30" fill="none" xmlns="http://www.w3.org/2000/svg">
<rect width="30" height="30" rx="3" fill="#808080"/>
<path d="M19.6002 8.82C18.9167 8.03953 18.5401 7.0374 18.5402 6H15.4502V18.4C15.4268 19.0712 15.1437 19.7071 14.6605 20.1735C14.1773 20.6399 13.5318 20.9004 12.8602 20.9C11.4402 20.9 10.2602 19.74 10.2602 18.3C10.2602 16.58 11.9202 15.29 13.6302 15.82V12.66C10.1802 12.2 7.16016 14.88 7.16016 18.3C7.16016 21.63 9.92016 24 12.8502 24C15.9902 24 18.5402 21.45 18.5402 18.3V12.01C19.7932 12.9099 21.2975 13.3926 22.8402 13.39V10.3C22.8402 10.3 20.9602 10.39 19.6002 8.82Z" fill="white"/>
</svg>
