<svg width="97" height="97" viewBox="0 0 97 97" fill="none" xmlns="http://www.w3.org/2000/svg">
<g clip-path="url(#clip0_2381_7617)">
<path d="M76.1979 68.1777V76.1986H28.0729V68.1777C28.0729 68.1777 28.0729 52.1361 52.1354 52.1361C76.1979 52.1361 76.1979 68.1777 76.1979 68.1777ZM64.1667 32.084C64.1667 29.7044 63.461 27.3783 62.139 25.3998C60.817 23.4213 58.938 21.8792 56.7396 20.9686C54.5412 20.0579 52.1221 19.8197 49.7882 20.2839C47.4544 20.7481 45.3106 21.894 43.628 23.5766C41.9454 25.2592 40.7996 27.403 40.3353 29.7368C39.8711 32.0706 40.1094 34.4897 41.02 36.6881C41.9306 38.8866 43.4727 40.7656 45.4512 42.0876C47.4297 43.4096 49.7559 44.1152 52.1354 44.1152C55.3263 44.1152 58.3865 42.8477 60.6428 40.5914C62.8991 38.3351 64.1667 35.2749 64.1667 32.084ZM77 52.3767C79.1922 54.3992 80.9596 56.838 82.199 59.551C83.4384 62.2639 84.125 65.1966 84.2188 68.1777V76.1986H96.25V68.1777C96.25 68.1777 96.25 54.3418 77 52.3767ZM72.1875 20.0527C70.9758 20.0528 69.7715 20.2422 68.6182 20.6142C70.9645 23.9788 72.2225 27.9821 72.2225 32.084C72.2225 36.1859 70.9645 40.1892 68.6182 43.5538C69.7715 43.9257 70.9758 44.1152 72.1875 44.1152C75.3784 44.1152 78.4386 42.8477 80.6949 40.5914C82.9512 38.3351 84.2188 35.2749 84.2188 32.084C84.2188 28.8931 82.9512 25.8329 80.6949 23.5766C78.4386 21.3203 75.3784 20.0527 72.1875 20.0527ZM32.0833 40.1048H20.0521V28.0736H12.0312V40.1048H0V48.1257H12.0312V60.1569H20.0521V48.1257H32.0833V40.1048Z" fill="#61C454"/>
</g>
<defs>
<clipPath id="clip0_2381_7617">
<rect width="96.25" height="96.25" fill="white"/>
</clipPath>
</defs>
</svg>
