<svg width="97" height="97" viewBox="0 0 97 97" fill="none" xmlns="http://www.w3.org/2000/svg">
<path d="M36.0934 48.1257C43.8335 48.1257 50.1299 41.8293 50.1299 34.0892C50.1299 26.3491 43.8335 20.0527 36.0934 20.0527C28.3533 20.0527 22.057 26.3491 22.057 34.0892C22.057 41.8293 28.3533 48.1257 36.0934 48.1257ZM36.0934 28.0736C39.4221 28.0736 42.1091 30.7605 42.1091 34.0892C42.1091 37.4178 39.4221 40.1048 36.0934 40.1048C32.7648 40.1048 30.0778 37.4178 30.0778 34.0892C30.0778 30.7605 32.7648 28.0736 36.0934 28.0736ZM36.0934 55.1439C26.7091 55.1439 8.02051 59.8361 8.02051 69.1803V72.1881C8.02051 74.3939 9.8252 76.1986 12.0309 76.1986H60.1559C62.3617 76.1986 64.1663 74.3939 64.1663 72.1881V69.1803C64.1663 59.8361 45.4778 55.1439 36.0934 55.1439ZM17.4049 68.1777C20.7736 65.8517 28.9148 63.1647 36.0934 63.1647C43.2721 63.1647 51.4132 65.8517 54.782 68.1777H17.4049ZM64.3268 55.3845C68.9789 58.7533 72.1872 63.2449 72.1872 69.1803V76.1986H84.2184C86.4242 76.1986 88.2289 74.3939 88.2289 72.1881V69.1803C88.2289 61.0793 74.1924 56.4673 64.3268 55.3845ZM60.1559 48.1257C67.896 48.1257 74.1924 41.8293 74.1924 34.0892C74.1924 26.3491 67.896 20.0527 60.1559 20.0527C57.9903 20.0527 55.9851 20.5741 54.1403 21.4564C56.6669 25.0257 58.1507 29.397 58.1507 34.0892C58.1507 38.7814 56.6669 43.1527 54.1403 46.722C55.9851 47.6043 57.9903 48.1257 60.1559 48.1257Z" fill="white"/>
</svg>
