<svg width="92" height="92" viewBox="0 0 92 92" fill="none" xmlns="http://www.w3.org/2000/svg">
<path d="M15.4789 15.4819H26.8189L34.3789 7.92188H57.0589L64.6189 15.4819H75.9589C77.964 15.4819 79.8869 16.2784 81.3047 17.6961C82.7225 19.1139 83.519 21.0368 83.519 23.0419V68.4019C83.519 70.4069 82.7225 72.3298 81.3047 73.7476C79.8869 75.1654 77.964 75.9619 75.9589 75.9619H15.4789C13.4739 75.9619 11.551 75.1654 10.1332 73.7476C8.71544 72.3298 7.91895 70.4069 7.91895 68.4019V23.0419C7.91895 21.0368 8.71544 19.1139 10.1332 17.6961C11.551 16.2784 13.4739 15.4819 15.4789 15.4819ZM45.7189 26.8219C40.7064 26.8219 35.8991 28.8131 32.3546 32.3576C28.8102 35.902 26.8189 40.7093 26.8189 45.7219C26.8189 50.7345 28.8102 55.5418 32.3546 59.0862C35.8991 62.6306 40.7064 64.6219 45.7189 64.6219C50.7315 64.6219 55.5388 62.6306 59.0833 59.0862C62.6277 55.5418 64.6189 50.7345 64.6189 45.7219C64.6189 40.7093 62.6277 35.902 59.0833 32.3576C55.5388 28.8131 50.7315 26.8219 45.7189 26.8219ZM45.7189 34.3819C48.7265 34.3819 51.6109 35.5766 53.7375 37.7033C55.8642 39.8299 57.0589 42.7143 57.0589 45.7219C57.0589 48.7294 55.8642 51.6138 53.7375 53.7405C51.6109 55.8671 48.7265 57.0619 45.7189 57.0619C42.7114 57.0619 39.827 55.8671 37.7004 53.7405C35.5737 51.6138 34.3789 48.7294 34.3789 45.7219C34.3789 42.7143 35.5737 39.8299 37.7004 37.7033C39.827 35.5766 42.7114 34.3819 45.7189 34.3819Z" fill="#004854"/>
</svg>
