<svg width="33" height="33" viewBox="0 0 33 33" fill="none" xmlns="http://www.w3.org/2000/svg">
<path d="M22.5249 30.7247H10.4742C9.62684 30.7272 8.80901 30.4134 8.18077 29.8448C7.55254 29.2761 7.15912 28.4934 7.0775 27.65L5.12595 8.07871C5.10985 7.9205 5.12717 7.76066 5.17677 7.60956C5.22637 7.45846 5.30716 7.31947 5.4139 7.20157C5.52063 7.08368 5.65094 6.98952 5.79638 6.92519C5.94183 6.86086 6.09916 6.82779 6.25819 6.82813H26.7409C26.8999 6.82814 27.057 6.86145 27.2023 6.9259C27.3476 6.99034 27.4777 7.08451 27.5844 7.20232C27.6911 7.32014 27.7719 7.45899 27.8216 7.60993C27.8714 7.76088 27.8889 7.92057 27.8732 8.07871L25.9216 27.6489C25.84 28.4924 25.4467 29.2752 24.8185 29.844C24.1902 30.4129 23.3724 30.7269 22.5249 30.7247ZM7.51447 9.10399L9.34198 27.4235C9.36943 27.7046 9.50063 27.9654 9.70998 28.155C9.91933 28.3445 10.1918 28.4493 10.4742 28.4488H22.5249C22.8073 28.4493 23.0798 28.3445 23.2892 28.155C23.4985 27.9654 23.6297 27.7046 23.6572 27.4235L25.4847 9.10399H7.51447Z" fill="#B20000"/>
<path d="M29.5857 9.10399H3.41332C3.11152 9.10399 2.82209 8.9841 2.60868 8.77069C2.39528 8.55729 2.27539 8.26785 2.27539 7.96606C2.27539 7.66426 2.39528 7.37482 2.60868 7.16142C2.82209 6.94801 3.11152 6.82812 3.41332 6.82812H29.5857C29.8875 6.82812 30.177 6.94801 30.3904 7.16142C30.6038 7.37482 30.7237 7.66426 30.7237 7.96606C30.7237 8.26785 30.6038 8.55729 30.3904 8.77069C30.177 8.9841 29.8875 9.10399 29.5857 9.10399ZM16.4995 26.173C16.1977 26.173 15.9083 26.0531 15.6949 25.8397C15.4815 25.6263 15.3616 25.3368 15.3616 25.035V12.5178C15.3616 12.216 15.4815 11.9265 15.6949 11.7131C15.9083 11.4997 16.1977 11.3798 16.4995 11.3798C16.8013 11.3798 17.0908 11.4997 17.3042 11.7131C17.5176 11.9265 17.6375 12.216 17.6375 12.5178V25.035C17.6375 25.3368 17.5176 25.6263 17.3042 25.8397C17.0908 26.0531 16.8013 26.173 16.4995 26.173ZM12.5156 26.173C12.2317 26.1727 11.9582 26.0663 11.7487 25.8747C11.5392 25.6831 11.4089 25.4202 11.3834 25.1374L10.2455 12.6202C10.2183 12.3198 10.3115 12.0209 10.5046 11.7891C10.6977 11.5574 10.9749 11.4118 11.2753 11.3844C11.5759 11.3578 11.8748 11.4514 12.1066 11.6446C12.3384 11.8378 12.4842 12.1149 12.5122 12.4154L13.6502 24.9326C13.6644 25.0901 13.6456 25.2489 13.5951 25.3988C13.5445 25.5486 13.4633 25.6863 13.3565 25.803C13.2497 25.9198 13.1198 26.0129 12.9751 26.0766C12.8303 26.1403 12.6738 26.1731 12.5156 26.173ZM20.4834 26.173C20.3253 26.1731 20.1688 26.1403 20.024 26.0766C19.8792 26.0129 19.7493 25.9198 19.6426 25.803C19.5358 25.6863 19.4546 25.5486 19.404 25.3988C19.3534 25.2489 19.3347 25.0901 19.3489 24.9326L20.4868 12.4154C20.5449 11.7895 21.0911 11.3389 21.7238 11.3844C22.0242 11.4118 22.3014 11.5574 22.4945 11.7891C22.6876 12.0209 22.7808 12.3198 22.7536 12.6202L21.6157 25.1374C21.5901 25.4202 21.4598 25.6831 21.2503 25.8747C21.0408 26.0663 20.7673 26.1727 20.4834 26.173Z" fill="#B20000"/>
<path d="M21.6205 9.10298H11.3791C11.0773 9.10298 10.7879 8.98309 10.5745 8.76968C10.3611 8.55628 10.2412 8.26684 10.2412 7.96505V3.41332C10.2412 3.11152 10.3611 2.82209 10.5745 2.60868C10.7879 2.39528 11.0773 2.27539 11.3791 2.27539H21.6205C21.9223 2.27539 22.2118 2.39528 22.4252 2.60868C22.6386 2.82209 22.7585 3.11152 22.7585 3.41332V7.96505C22.7585 8.26684 22.6386 8.55628 22.4252 8.76968C22.2118 8.98309 21.9223 9.10298 21.6205 9.10298ZM12.5171 6.82711H20.4826V4.55125H12.5171V6.82711Z" fill="#B20000"/>
</svg>
