<svg width="33" height="33" viewBox="0 0 33 33" fill="none" xmlns="http://www.w3.org/2000/svg">
<path d="M6.875 25.2482H12.705C12.886 25.2493 13.0653 25.2146 13.2329 25.1461C13.4004 25.0777 13.5528 24.9769 13.6812 24.8495L23.1963 15.3207L27.1012 11.4982C27.2301 11.3704 27.3324 11.2183 27.4022 11.0508C27.472 10.8832 27.508 10.7035 27.508 10.522C27.508 10.3404 27.472 10.1607 27.4022 9.99316C27.3324 9.82561 27.2301 9.67353 27.1012 9.54571L21.2712 3.64696C21.1434 3.51808 20.9914 3.41579 20.8238 3.34598C20.6562 3.27617 20.4765 3.24023 20.295 3.24023C20.1135 3.24023 19.9338 3.27617 19.7662 3.34598C19.5986 3.41579 19.4466 3.51808 19.3188 3.64696L15.4412 7.53821L5.89875 17.067C5.77131 17.1954 5.67049 17.3478 5.60206 17.5153C5.53364 17.6829 5.49895 17.8622 5.5 18.0432V23.8732C5.5 24.2379 5.64487 24.5876 5.90273 24.8455C6.16059 25.1033 6.51033 25.2482 6.875 25.2482ZM20.295 6.56196L24.1863 10.4532L22.2337 12.4057L18.3425 8.51446L20.295 6.56196ZM8.25 18.607L16.4038 10.4532L20.295 14.3445L12.1412 22.4982H8.25V18.607ZM28.875 27.9982H4.125C3.76033 27.9982 3.41059 28.1431 3.15273 28.4009C2.89487 28.6588 2.75 29.0085 2.75 29.3732C2.75 29.7379 2.89487 30.0876 3.15273 30.3455C3.41059 30.6033 3.76033 30.7482 4.125 30.7482H28.875C29.2397 30.7482 29.5894 30.6033 29.8473 30.3455C30.1051 30.0876 30.25 29.7379 30.25 29.3732C30.25 29.0085 30.1051 28.6588 29.8473 28.4009C29.5894 28.1431 29.2397 27.9982 28.875 27.9982Z" fill="#FBB900"/>
</svg>
