<svg width="96" height="96" viewBox="0 0 96 96" fill="none" xmlns="http://www.w3.org/2000/svg">
<g clip-path="url(#clip0_2844_6812)">
<path d="M11.2331 61.757L6.1754 83.5849C6.00092 84.3828 6.0069 85.2097 6.1929 86.005C6.3789 86.8003 6.74022 87.5441 7.25046 88.1818C7.7607 88.8196 8.40697 89.3354 9.14207 89.6915C9.87717 90.0475 10.6825 90.2348 11.4993 90.2398C11.8797 90.2809 12.2635 90.2809 12.6439 90.2398L34.605 85.1821L76.7702 43.1766L53.2386 19.6982L11.2331 61.757Z" fill="white"/>
<path d="M90.0269 22.1474L74.3214 6.44194C73.2889 5.41461 71.8916 4.83789 70.435 4.83789C68.9784 4.83789 67.5811 5.41461 66.5486 6.44194L57.8174 15.1731L81.3224 38.6781L90.0535 29.9469C90.5645 29.4334 90.9692 28.8241 91.2444 28.154C91.5196 27.4839 91.66 26.7661 91.6576 26.0416C91.6551 25.3172 91.5098 24.6004 91.23 23.9322C90.9502 23.2639 90.5414 22.6575 90.0269 22.1474Z" fill="white"/>
</g>
<defs>
<clipPath id="clip0_2844_6812">
<rect width="95.83" height="95.83" fill="white"/>
</clipPath>
</defs>
</svg>
