<svg width="88" height="78" viewBox="0 0 88 78" fill="none" xmlns="http://www.w3.org/2000/svg">
<path d="M44.0003 0.416016C40.1712 0.416016 36.499 1.93711 33.7914 4.64466C31.0839 7.35222 29.5628 11.0245 29.5628 14.8535C29.5628 18.6826 31.0839 22.3548 33.7914 25.0624C36.499 27.7699 40.1712 29.291 44.0003 29.291C47.8293 29.291 51.5016 27.7699 54.2091 25.0624C56.9167 22.3548 58.4378 18.6826 58.4378 14.8535C58.4378 11.0245 56.9167 7.35222 54.2091 4.64466C51.5016 1.93711 47.8293 0.416016 44.0003 0.416016ZM20.1928 38.8968C20.0292 39.6796 19.9474 40.4881 19.9474 41.3223V58.166C19.9443 61.6599 20.7035 65.1124 22.1723 68.2825C23.641 71.4527 25.7838 74.2642 28.4511 76.5209L27.6282 76.7615C25.1862 77.4166 22.639 77.5841 20.1323 77.2547C17.6255 76.9252 15.2082 76.1051 13.0184 74.8413C10.8286 73.5775 8.90922 71.8947 7.36987 69.8889C5.83053 67.8832 4.70138 65.5939 4.04691 63.1518L0.933223 51.5296C0.68798 50.6138 0.625517 49.6587 0.749399 48.7189C0.873282 47.779 1.18108 46.8727 1.65523 46.0518C2.12938 45.2308 2.76058 44.5113 3.5128 43.9343C4.26502 43.3574 5.12352 42.9342 6.03928 42.689L20.1928 38.8968ZM59.5687 76.5209C62.236 74.2642 64.3788 71.4527 65.8475 68.2825C67.3163 65.1124 68.0755 61.6599 68.0724 58.166V41.3223C68.0692 40.4881 67.989 39.6796 67.8318 38.8968L81.9805 42.689C83.8291 43.1852 85.405 44.3953 86.3616 46.0531C87.3182 47.7109 87.5772 49.6808 87.0818 51.5296L83.9681 63.1518C83.2949 65.6631 82.1199 68.012 80.5141 70.0568C78.9082 72.1016 76.9048 73.7999 74.6247 75.0492C72.3446 76.2985 69.835 77.0731 67.2473 77.326C64.6597 77.5789 62.0476 77.3051 59.5687 76.5209ZM75.2815 10.041C72.0906 10.041 69.0304 11.3086 66.7741 13.5649C64.5179 15.8212 63.2503 18.8814 63.2503 22.0723C63.2503 25.2632 64.5179 28.3233 66.7741 30.5796C69.0304 32.8359 72.0906 34.1035 75.2815 34.1035C78.4724 34.1035 81.5326 32.8359 83.7889 30.5796C86.0452 28.3233 87.3128 25.2632 87.3128 22.0723C87.3128 18.8814 86.0452 15.8212 83.7889 13.5649C81.5326 11.3086 78.4724 10.041 75.2815 10.041ZM12.719 10.041C9.52815 10.041 6.46795 11.3086 4.21166 13.5649C1.95536 15.8212 0.687785 18.8814 0.687785 22.0723C0.687785 25.2632 1.95536 28.3233 4.21166 30.5796C6.46795 32.8359 9.52815 34.1035 12.719 34.1035C15.9099 34.1035 18.9701 32.8359 21.2264 30.5796C23.4827 28.3233 24.7503 25.2632 24.7503 22.0723C24.7503 18.8814 23.4827 15.8212 21.2264 13.5649C18.9701 11.3086 15.9099 10.041 12.719 10.041ZM31.969 34.1035C30.0545 34.1035 28.2184 34.8641 26.8646 36.2178C25.5108 37.5716 24.7503 39.4077 24.7503 41.3223V58.166C24.7503 63.2714 26.7784 68.1677 30.3885 71.7778C33.9986 75.3879 38.8949 77.416 44.0003 77.416C49.1057 77.416 54.002 75.3879 57.6121 71.7778C61.2222 68.1677 63.2503 63.2714 63.2503 58.166V41.3223C63.2503 39.4077 62.4897 37.5716 61.136 36.2178C59.7822 34.8641 57.9461 34.1035 56.0315 34.1035H31.969Z" fill="white"/>
</svg>
