<svg width="97" height="97" viewBox="0 0 97 97" fill="none" xmlns="http://www.w3.org/2000/svg">
<path d="M36.0938 12.0313H16.0417C14.978 12.0313 13.958 12.4538 13.2059 13.2059C12.4538 13.958 12.0313 14.978 12.0312 16.0417V36.0938C12.0313 37.1574 12.4538 38.1774 13.2059 38.9295C13.958 39.6816 14.978 40.1042 16.0417 40.1042H36.0938C37.1574 40.1042 38.1774 39.6816 38.9295 38.9295C39.6816 38.1774 40.1042 37.1574 40.1042 36.0938V16.0417C40.1042 14.978 39.6816 13.958 38.9295 13.2059C38.1774 12.4538 37.1574 12.0313 36.0938 12.0313ZM36.0938 56.1458H16.0417C14.978 56.1458 13.958 56.5684 13.2059 57.3205C12.4538 58.0726 12.0313 59.0926 12.0312 60.1562V80.2083C12.0313 81.272 12.4538 82.292 13.2059 83.0441C13.958 83.7962 14.978 84.2188 16.0417 84.2188H36.0938C37.1574 84.2188 38.1774 83.7962 38.9295 83.0441C39.6816 82.292 40.1042 81.272 40.1042 80.2083V60.1562C40.1042 59.0926 39.6816 58.0726 38.9295 57.3205C38.1774 56.5684 37.1574 56.1458 36.0938 56.1458ZM70.1823 40.1042C72.0256 40.1042 73.8508 39.7411 75.5538 39.0357C77.2568 38.3303 78.8042 37.2964 80.1076 35.993C81.411 34.6896 82.4449 33.1422 83.1503 31.4392C83.8557 29.7362 84.2188 27.911 84.2188 26.0677C84.2188 24.2244 83.8557 22.3992 83.1503 20.6962C82.4449 18.9932 81.411 17.4458 80.1076 16.1424C78.8042 14.839 77.2568 13.8051 75.5538 13.0997C73.8508 12.3943 72.0256 12.0312 70.1823 12.0313C66.4596 12.0313 62.8894 13.5101 60.257 16.1424C57.6247 18.7748 56.1458 22.345 56.1458 26.0677C56.1458 29.7904 57.6247 33.3606 60.257 35.993C62.8894 38.6253 66.4596 40.1042 70.1823 40.1042ZM80.2083 56.1458H60.1562C59.0926 56.1458 58.0726 56.5684 57.3205 57.3205C56.5684 58.0726 56.1458 59.0926 56.1458 60.1562V80.2083C56.1458 81.272 56.5684 82.292 57.3205 83.0441C58.0726 83.7962 59.0926 84.2188 60.1562 84.2188H80.2083C81.272 84.2188 82.292 83.7962 83.0441 83.0441C83.7962 82.292 84.2188 81.272 84.2188 80.2083V60.1562C84.2188 59.0926 83.7962 58.0726 83.0441 57.3205C82.292 56.5684 81.272 56.1458 80.2083 56.1458Z" fill="white" stroke="white" stroke-linejoin="round"/>
</svg>
