<svg width="97" height="97" viewBox="0 0 97 97" fill="none" xmlns="http://www.w3.org/2000/svg">
<g clip-path="url(#clip0_2844_6753)">
<path d="M76.1982 14.0371H20.0524C17.8467 14.0371 16.042 15.8418 16.042 18.0475V30.0788C16.042 32.2845 17.8467 34.0892 20.0524 34.0892H76.1982C78.404 34.0892 80.2087 32.2845 80.2087 30.0788V18.0475C80.2087 15.8418 78.404 14.0371 76.1982 14.0371ZM76.1982 38.0996H20.0524C17.8467 38.0996 16.042 39.9043 16.042 42.11V54.1413C16.042 56.347 17.8467 58.1517 20.0524 58.1517H76.1982C78.404 58.1517 80.2087 56.347 80.2087 54.1413V42.11C80.2087 39.9043 78.404 38.0996 76.1982 38.0996ZM76.1982 62.1621H20.0524C17.8467 62.1621 16.042 63.9668 16.042 66.1725V78.2038C16.042 80.4095 17.8467 82.2142 20.0524 82.2142H76.1982C78.404 82.2142 80.2087 80.4095 80.2087 78.2038V66.1725C80.2087 63.9668 78.404 62.1621 76.1982 62.1621Z" fill="white"/>
<path d="M94.7497 76.1986C94.7497 86.4446 86.4436 94.7507 76.1976 94.7507C65.9516 94.7507 57.6455 86.4446 57.6455 76.1986C57.6455 65.9525 65.9516 57.6465 76.1976 57.6465C86.4436 57.6465 94.7497 65.9525 94.7497 76.1986Z" fill="white" stroke="#1E90FF" stroke-width="3"/>
<path d="M85.2217 66.7734L73.792 78.2031L68.3779 72.7891L64.167 77.2005L73.792 86.8255L89.4326 71.1849L85.2217 66.7734Z" fill="#1E90FF"/>
</g>
<defs>
<clipPath id="clip0_2844_6753">
<rect width="96.25" height="96.25" fill="white"/>
</clipPath>
</defs>
</svg>
