<svg width="30" height="30" viewBox="0 0 30 30" fill="none" xmlns="http://www.w3.org/2000/svg">
<path d="M29.1746 29.1746C28.0741 30.2751 26.2903 30.2751 25.1898 29.1746L20.2174 24.2022C18.1731 25.5136 15.7566 26.295 13.1475 26.295C5.88686 26.295 0 20.4089 0 13.1475C0 5.88598 5.88686 0 13.1475 0C20.4091 0 26.295 5.88587 26.295 13.1475C26.295 15.7557 25.5127 18.1731 24.2022 20.2183L29.1746 25.1908C30.2751 26.2913 30.2751 28.0741 29.1746 29.1746ZM13.1475 3.75639C7.96132 3.75639 3.75645 7.96032 3.75645 13.1474C3.75645 18.3345 7.96138 22.5385 13.1475 22.5385C18.3345 22.5385 22.5385 18.3345 22.5385 13.1474C22.5385 7.96032 18.3345 3.75639 13.1475 3.75639Z" fill="#808080"/>
</svg>
