<svg width="96" height="96" viewBox="0 0 96 96" fill="none" xmlns="http://www.w3.org/2000/svg">
<path d="M19.9643 87.8447C17.7682 87.8447 15.8889 87.0634 14.3264 85.5008C12.7638 83.9383 11.9812 82.0576 11.9785 79.8588V23.958C11.9785 21.7619 12.7611 19.8826 14.3264 18.32C15.8916 16.7574 17.7709 15.9748 19.9643 15.9722H23.9573V11.9793C23.9573 10.8479 24.3406 9.90028 25.1072 9.1363C25.8739 8.37232 26.8215 7.989 27.9502 7.98634C29.0788 7.98368 30.0278 8.367 30.7971 9.1363C31.5664 9.9056 31.9484 10.8533 31.9431 11.9793V15.9722H63.8864V11.9793C63.8864 10.8479 64.2698 9.90028 65.0364 9.1363C65.803 8.37232 66.7507 7.989 67.8793 7.98634C69.008 7.98368 69.957 8.367 70.7263 9.1363C71.4956 9.9056 71.8776 10.8533 71.8723 11.9793V15.9722H75.8652C78.0613 15.9722 79.9419 16.7548 81.5072 18.32C83.0724 19.8852 83.8537 21.7646 83.851 23.958V79.8588C83.851 82.0549 83.0697 83.9356 81.5072 85.5008C79.9446 87.0661 78.0639 87.8473 75.8652 87.8447H19.9643ZM19.9643 79.8588H75.8652V39.9297H19.9643V79.8588ZM31.9431 55.9013C30.8118 55.9013 29.8641 55.518 29.1001 54.7514C28.3362 53.9847 27.9528 53.0371 27.9502 51.9084C27.9475 50.7798 28.3308 49.8321 29.1001 49.0655C29.8694 48.2988 30.8171 47.9155 31.9431 47.9155H63.8864C65.0178 47.9155 65.9667 48.2988 66.7334 49.0655C67.5 49.8321 67.882 50.7798 67.8793 51.9084C67.8767 53.0371 67.4934 53.9861 66.7294 54.7554C65.9654 55.5247 65.0178 55.9067 63.8864 55.9013H31.9431ZM31.9431 71.873C30.8118 71.873 29.8641 71.4897 29.1001 70.7231C28.3362 69.9564 27.9528 69.0088 27.9502 67.8801C27.9475 66.7514 28.3308 65.8038 29.1001 65.0371C29.8694 64.2705 30.8171 63.8872 31.9431 63.8872H51.9077C53.039 63.8872 53.988 64.2705 54.7546 65.0371C55.5213 65.8038 55.9033 66.7514 55.9006 67.8801C55.8979 69.0088 55.5146 69.9577 54.7506 70.727C53.9867 71.4963 53.039 71.8783 51.9077 71.873H31.9431Z" fill="white"/>
</svg>
